<svg width="232" height="307" viewBox="0 0 232 307" fill="none" xmlns="http://www.w3.org/2000/svg">
<path d="M231.663 73.6372L201.639 90.9713L115.867 41.4509L116.006 6.86271L231.663 73.6372Z" fill="#DA125A"/>
<path d="M0.337158 207.149L30.363 189.963L115.994 239.268L115.994 273.861L0.337158 207.149Z" fill="#DA125A"/>
<path d="M231.663 207.125L201.639 189.791L201.639 90.75L231.663 73.576L231.663 207.125Z" fill="#ED2C72"/>
<path d="M0.337158 73.6006L30.3608 90.9347L30.3608 189.976L0.337167 207.15L0.337158 73.6006Z" fill="#ED2C72"/>
<path d="M116.006 273.899L116.006 239.231L201.644 189.787L231.663 207.125L116.006 273.899Z" fill="#EA1B66"/>
<path d="M115.994 6.86279L115.994 41.5311L30.222 91.0515L0.337092 73.6373L115.994 6.86279Z" fill="#DA125A"/>
<path d="M116 205.25L60.1414 173L60.1414 32.25L116 -4.88332e-06L171.859 32.25L171.859 173L116 205.25Z" fill="url(#paint0_linear_2003_914)"/>
<path d="M87.0068 141.83H93.3868C93.3481 141.037 93.0581 140.37 92.5168 139.829C91.9948 139.288 91.2215 139.017 90.1968 139.017C89.2688 139.017 88.5148 139.307 87.9348 139.887C87.3548 140.467 87.0455 141.115 87.0068 141.83ZM93.7638 145.542L96.9828 146.499C96.5961 147.814 95.8325 148.896 94.6918 149.747C93.5705 150.598 92.1688 151.023 90.4868 151.023C88.4375 151.023 86.6975 150.337 85.2668 148.964C83.8361 147.572 83.1208 145.716 83.1208 143.396C83.1208 141.192 83.8168 139.394 85.2088 138.002C86.6008 136.591 88.2441 135.885 90.1388 135.885C92.3428 135.885 94.0635 136.542 95.3008 137.857C96.5575 139.172 97.1858 140.979 97.1858 143.28C97.1858 143.435 97.1761 143.609 97.1568 143.802C97.1568 143.995 97.1568 144.15 97.1568 144.266L97.1278 144.469H86.9198C86.9585 145.397 87.3258 146.17 88.0218 146.789C88.7178 147.408 89.5491 147.717 90.5158 147.717C92.1591 147.717 93.2418 146.992 93.7638 145.542ZM98.7441 144.324V142.961L102.601 142.265V144.15C102.62 145.175 102.881 145.948 103.384 146.47C103.906 146.973 104.592 147.224 105.443 147.224C106.274 147.224 106.932 146.953 107.415 146.412C107.918 145.871 108.169 145.146 108.169 144.237V130.027H112.171V144.237C112.171 146.132 111.543 147.736 110.286 149.051C109.029 150.366 107.425 151.023 105.472 151.023C103.442 151.023 101.808 150.414 100.571 149.196C99.3531 147.959 98.7441 146.335 98.7441 144.324ZM120.687 139.394H123.848C124.834 139.394 125.617 139.133 126.197 138.611C126.777 138.07 127.067 137.354 127.067 136.465C127.067 135.556 126.777 134.841 126.197 134.319C125.636 133.778 124.853 133.507 123.848 133.507H120.687V139.394ZM124.341 142.845H120.658V150.588H116.656V130.027H124.341C126.351 130.027 127.975 130.626 129.213 131.825C130.469 133.024 131.098 134.561 131.098 136.436C131.098 138.311 130.469 139.848 129.213 141.047C127.975 142.246 126.351 142.845 124.341 142.845ZM149.381 133.826H142.885V150.588H138.854V133.826H132.358V130.027H149.381V133.826Z" fill="white"/>
<path d="M116 273.861L167.359 303.513C169.359 304.668 171.859 303.225 171.859 300.915V241.736L116 273.861L60.1414 241.736L60.1414 300.915C60.1414 303.225 62.6414 304.668 64.6414 303.513L116 273.861Z" fill="url(#paint1_linear_2003_914)"/>
<path fill-rule="evenodd" clip-rule="evenodd" d="M142.569 46.2461L144.198 46.2461C145.447 46.2461 146.072 47.7562 145.189 48.6395L127.588 66.2406C127.061 66.7674 126.207 66.7674 125.68 66.2406C125.153 65.7137 125.153 64.8595 125.68 64.3327L141.03 48.9825C133.075 49.3789 125.556 52.8361 120.07 58.6646C119.559 59.2071 118.705 59.2329 118.163 58.7222C117.62 58.2115 117.594 57.3577 118.105 56.8152C124.454 50.0704 133.306 46.2461 142.569 46.2461ZM104.25 72.5772C104.777 73.104 104.777 73.9582 104.25 74.485L93.359 85.376L94.9354 89.4385L98.9979 91.0149L109.889 80.1239C110.416 79.5971 111.27 79.5971 111.797 80.1239C112.324 80.6508 112.324 81.5049 111.797 82.0318L101.747 92.0816L104.462 93.1351C105.157 93.4046 105.501 94.1862 105.232 94.8808C104.962 95.5754 104.181 95.92 103.486 95.6505L94.183 92.0406L86.3727 99.851C85.8458 100.378 84.9917 100.378 84.4648 99.851C83.938 99.3241 83.938 98.47 84.4648 97.9431L92.3008 90.1072L88.7234 80.8879C88.4539 80.1933 88.7985 79.4117 89.4931 79.1422C90.1877 78.8726 90.9692 79.2172 91.2388 79.9118L92.2923 82.627L102.342 72.5772C102.869 72.0503 103.723 72.0503 104.25 72.5772Z" fill="url(#paint2_linear_2003_914)"/>
<path fill-rule="evenodd" clip-rule="evenodd" d="M84.554 48.6395C83.6708 47.7562 84.2964 46.2461 85.5454 46.2461L87.1736 46.2461C96.4298 46.2461 105.276 50.0647 111.624 56.8002L138.328 83.5047C138.855 84.0315 138.855 84.8857 138.328 85.4125C137.802 85.9394 136.947 85.9394 136.421 85.4125L109.687 58.6794L109.673 58.6646C104.187 52.8361 96.6679 49.3789 88.7127 48.9825L130.782 91.0514C131.309 91.5783 131.309 92.4324 130.782 92.9593C130.255 93.4861 129.401 93.4861 128.874 92.9593L84.554 48.6395Z" fill="url(#paint3_linear_2003_914)"/>
<path fill-rule="evenodd" clip-rule="evenodd" d="M140.25 79.1421C140.944 79.4117 141.289 80.1932 141.019 80.8879L136.893 91.5235L126.257 95.6505C125.562 95.92 124.781 95.5754 124.511 94.8808C124.242 94.1862 124.586 93.4046 125.281 93.1351L134.807 89.4385L138.504 79.9118C138.774 79.2172 139.555 78.8726 140.25 79.1421Z" fill="url(#paint4_linear_2003_914)"/>
<path fill-rule="evenodd" clip-rule="evenodd" d="M145.278 99.851C144.751 100.378 143.897 100.378 143.37 99.851L135.087 91.5672C134.56 91.0404 134.56 90.1862 135.087 89.6593C135.613 89.1325 136.468 89.1325 136.994 89.6593L145.278 97.9431C145.805 98.47 145.805 99.3241 145.278 99.851Z" fill="url(#paint5_linear_2003_914)"/>
<defs>
<linearGradient id="paint0_linear_2003_914" x1="116" y1="297.802" x2="116" y2="0.000540351" gradientUnits="userSpaceOnUse">
<stop stop-color="#6819CB"/>
<stop offset="0.885417" stop-color="#AF239C"/>
<stop offset="1" stop-color="#ED2C72"/>
</linearGradient>
<linearGradient id="paint1_linear_2003_914" x1="116.307" y1="241.711" x2="115.975" y2="306.287" gradientUnits="userSpaceOnUse">
<stop stop-color="#821DBA"/>
<stop offset="1" stop-color="#ED2C72"/>
</linearGradient>
<linearGradient id="paint2_linear_2003_914" x1="86.1758" y1="35.639" x2="159.378" y2="41.9088" gradientUnits="userSpaceOnUse">
<stop offset="0.177476" stop-color="#BB85FF"/>
<stop offset="1" stop-color="#FF5E5E"/>
</linearGradient>
<linearGradient id="paint3_linear_2003_914" x1="86.1758" y1="35.639" x2="159.378" y2="41.9088" gradientUnits="userSpaceOnUse">
<stop offset="0.177476" stop-color="#BB85FF"/>
<stop offset="1" stop-color="#FF5E5E"/>
</linearGradient>
<linearGradient id="paint4_linear_2003_914" x1="86.1758" y1="35.639" x2="159.378" y2="41.9088" gradientUnits="userSpaceOnUse">
<stop offset="0.177476" stop-color="#BB85FF"/>
<stop offset="1" stop-color="#FF5E5E"/>
</linearGradient>
<linearGradient id="paint5_linear_2003_914" x1="86.1758" y1="35.639" x2="159.378" y2="41.9088" gradientUnits="userSpaceOnUse">
<stop offset="0.177476" stop-color="#BB85FF"/>
<stop offset="1" stop-color="#FF5E5E"/>
</linearGradient>
</defs>
</svg>
